<svg width="22" height="22" viewBox="0 0 22 22" fill="none" xmlns="http://www.w3.org/2000/svg">
<path d="M21.6207 7.58621C21.4083 7.58621 21.2414 7.7531 21.2414 7.96552V20.1034C21.2414 20.7331 20.7331 21.2414 20.1034 21.2414H1.89655C1.2669 21.2414 0.758621 20.7331 0.758621 20.1034V1.89655C0.758621 1.2669 1.2669 0.758621 1.89655 0.758621H14.0345C14.2469 0.758621 14.4138 0.591724 14.4138 0.37931C14.4138 0.166897 14.2469 0 14.0345 0H1.89655C0.849655 0 0 0.849655 0 1.89655V20.1034C0 21.1503 0.849655 22 1.89655 22H20.1034C21.1503 22 22 21.1503 22 20.1034V7.96552C22 7.76069 21.8255 7.58621 21.6207 7.58621Z" fill="white"/>
<path d="M21.9924 0.303448C21.9924 0.295862 21.9848 0.28069 21.9848 0.273103C21.9848 0.257931 21.9773 0.250345 21.9697 0.235172C21.9621 0.22 21.9545 0.212414 21.9469 0.197241C21.9393 0.189655 21.9393 0.174483 21.9317 0.166897C21.9014 0.128966 21.871 0.0910345 21.8255 0.0606897C21.8179 0.0531034 21.8028 0.0531034 21.7952 0.0455172C21.78 0.037931 21.7724 0.0303448 21.7573 0.0227586C21.7421 0.0151724 21.7345 0.0151724 21.7193 0.00758621C21.7117 0.00758621 21.6966 0 21.689 0C21.6662 0.00758621 21.6435 0 21.6207 0H16.3104C16.0979 0 15.931 0.166897 15.931 0.37931C15.931 0.591724 16.0979 0.758621 16.3104 0.758621H20.7028L6.9338 14.5276C6.78208 14.6793 6.78208 14.9145 6.9338 15.0662C7.00966 15.1421 7.10828 15.18 7.19932 15.18C7.29035 15.18 7.39656 15.1421 7.46483 15.0662L21.2414 1.29724V5.68966C21.2414 5.90207 21.4083 6.06897 21.6207 6.06897C21.8331 6.06897 22 5.90207 22 5.68966V0.37931C22 0.356552 21.9924 0.333793 21.9924 0.303448Z" fill="white"/>
<path d="M1.89655 1.70691C1.79034 1.70691 1.70689 1.79036 1.70689 1.89656V7.20691C1.70689 7.31312 1.79034 7.39657 1.89655 7.39657C2.00276 7.39657 2.0862 7.31312 2.0862 7.20691V2.08622H7.20689C7.3131 2.08622 7.39655 2.00277 7.39655 1.89656C7.39655 1.79036 7.3131 1.70691 7.20689 1.70691H1.89655Z" fill="white"/>
</svg>
