<svg width="27" height="27" viewBox="0 0 27 27" fill="none" xmlns="http://www.w3.org/2000/svg">
<g clip-path="url(#clip0)">
<path d="M13.5048 0.00177016C8.10309 0.000982828 3.22116 3.22079 1.09507 8.18646L0.926806 8.24225L0.992042 8.43796C-1.80727 15.3421 1.52029 23.2083 8.42443 26.0076C10.037 26.6615 11.7607 26.9971 13.5008 26.9961C20.955 26.9973 26.9989 20.9553 27 13.501C27.0011 6.04671 20.9591 0.00283869 13.5048 0.00177016ZM24.0918 20.304L23.3987 19.6114V17.998C23.3995 17.9284 23.3841 17.8596 23.3537 17.7969L21.5991 14.2926V12.5991C21.5991 12.4488 21.524 12.3083 21.3989 12.2248L20.0492 11.325C19.9434 11.2544 19.8126 11.2318 19.6892 11.2629L18.0363 11.6759L15.2599 10.4846L14.8779 7.80854L15.9366 6.75036H18.209L18.9739 7.89987C19.0429 8.00324 19.1518 8.07348 19.2744 8.09378L21.9739 8.54369C22.0462 8.55584 22.1203 8.54993 22.1898 8.52659L24.676 7.69787C26.7613 11.6995 26.5382 16.5124 24.0918 20.304ZM22.2362 4.43515L21.5046 4.92284L19.4652 4.51478L18.142 4.07432C18.061 4.04682 17.9739 4.04333 17.891 4.06442L16.2182 4.48239L15.4849 4.23809L16.0284 3.15111H17.5499C17.6197 3.15117 17.6886 3.13503 17.751 3.10387L19.3077 2.32554C20.3797 2.88511 21.3659 3.59551 22.2362 4.43515ZM8.57296 1.90622L9.65273 2.62607C9.70582 2.66139 9.76577 2.68501 9.82865 2.69536L12.0089 3.05888L11.7961 3.6955L10.6601 4.07477C10.5583 4.10863 10.472 4.17769 10.4167 4.26958L9.12454 6.42283L7.04913 7.66817L3.98977 8.10503C3.76802 8.13636 3.60313 8.32605 3.60285 8.54999V9.89971C3.60285 10.019 3.65031 10.1334 3.73467 10.2178L4.50266 10.9858V11.7587L2.63105 10.5107L1.95214 8.47395C3.24382 5.52257 5.61128 3.17406 8.57296 1.90622ZM7.29208 16.6573L5.2585 16.2501L4.50266 14.7425V13.6852L6.17901 12.0089L6.79943 13.2502C6.87563 13.4027 7.03158 13.499 7.2021 13.499H10.0968L11.3156 15.5303C11.3969 15.6657 11.5432 15.7484 11.7012 15.7485H12.9519L12.637 17.3263L10.9336 19.0297C10.8491 19.114 10.8015 19.2283 10.8013 19.3477V20.4725L9.18168 21.6873C9.06842 21.7722 9.00172 21.9056 9.00172 22.0472V23.6722L8.44204 23.4869L7.652 21.5109V17.0982C7.65206 16.8844 7.50156 16.7 7.29208 16.6573ZM5.93966 23.5735C1.69766 20.3911 -0.0962808 14.8923 1.45275 9.82052L1.82662 10.9417C1.85811 11.0366 1.92031 11.1183 2.00343 11.1738L4.24621 12.6689L3.73467 13.1809C3.65031 13.2652 3.60285 13.3796 3.60285 13.499V14.8487C3.60279 14.9185 3.61893 14.9873 3.65009 15.0498L4.5499 16.8494C4.61221 16.9737 4.72846 17.0622 4.86483 17.0892L6.75444 17.4667V21.5973C6.75438 21.6544 6.76524 21.7111 6.78638 21.7642L7.68619 24.0137C7.73546 24.1366 7.83635 24.2316 7.96199 24.2733L9.31171 24.7232C9.35681 24.7385 9.40405 24.7464 9.45163 24.7466C9.70009 24.7466 9.90153 24.5452 9.90153 24.2967V22.2721L11.5212 21.0574C11.6345 20.9724 11.7012 20.8391 11.7012 20.6975V19.534L13.369 17.8662C13.4317 17.8034 13.4744 17.7234 13.4918 17.6363L13.9417 15.3868C13.9904 15.1431 13.8324 14.9061 13.5887 14.8574C13.5597 14.8516 13.5303 14.8487 13.5008 14.8487H11.9558L10.737 12.8173C10.6557 12.682 10.5094 12.5992 10.3514 12.5991H7.48014L6.7072 11.0483C6.64247 10.9189 6.51942 10.8284 6.37652 10.8054C6.23367 10.7807 6.08785 10.8278 5.98645 10.9313L5.40247 11.5131V10.7995C5.40247 10.6802 5.35501 10.5658 5.27065 10.4814L4.50266 9.71345V8.94006L7.26598 8.54549C7.32531 8.53689 7.3824 8.51653 7.4338 8.48565L9.68333 7.13593C9.74643 7.09803 9.79929 7.04517 9.8372 6.98207L11.1014 4.87515L12.2932 4.47744C12.4278 4.43329 12.5334 4.32773 12.5776 4.1931L13.0275 2.84338C13.1054 2.60746 12.9774 2.35298 12.7415 2.27503C12.7197 2.26784 12.6974 2.26232 12.6748 2.2585L10.0707 1.82434L9.61314 1.5193C12.4443 0.597784 15.5108 0.711835 18.2657 1.84099L17.4438 2.2513H15.7503C15.579 2.25035 15.422 2.34685 15.3454 2.5001L14.4456 4.29972C14.3347 4.52209 14.4251 4.79226 14.6475 4.90311C14.6664 4.91255 14.686 4.92065 14.7061 4.92734L16.0558 5.37725C16.1368 5.40475 16.2239 5.40824 16.3068 5.38715L17.9796 4.96919L19.2051 5.37725C19.2227 5.38355 19.2407 5.38839 19.2591 5.39165L21.5087 5.84155C21.6256 5.8654 21.7473 5.84144 21.8465 5.77497L22.8705 5.09201C23.3745 5.65332 23.8274 6.25845 24.2238 6.90018L22.0103 7.63803L19.6137 7.23851L18.8218 6.05076C18.7388 5.9263 18.5993 5.85128 18.4497 5.85055H15.7503C15.631 5.85055 15.5166 5.89802 15.4322 5.98237L14.0825 7.33209C13.9823 7.43225 13.9351 7.5738 13.9552 7.71406L14.4051 10.8634C14.4278 11.0191 14.5301 11.1517 14.675 11.213L17.8244 12.5627C17.9146 12.6018 18.0153 12.6098 18.1105 12.5856L19.7171 12.1839L20.6993 12.8398V14.3988C20.6985 14.4684 20.7139 14.5372 20.7443 14.5999L22.4989 18.1042V19.7976C22.4989 19.917 22.5464 20.0314 22.6307 20.1157L23.5719 21.0574C19.3978 26.6212 11.5035 27.7478 5.93966 23.5735Z" fill="white"/>
</g>
<defs>
<clipPath id="clip0">
<rect width="27" height="27" fill="white"/>
</clipPath>
</defs>
</svg>
